<svg width="70" height="22" viewBox="0 0 70 22" fill="none" xmlns="http://www.w3.org/2000/svg">
<path d="M12.1484 18.5117C12.1719 18.5977 12.1914 18.6875 12.207 18.7812C12.2305 18.8672 12.2422 18.9531 12.2422 19.0391C12.2422 19.2031 12.1992 19.3711 12.1133 19.543C12.0352 19.7148 11.9258 19.8672 11.7852 20C11.6523 20.1328 11.5 20.2422 11.3281 20.3281C11.1641 20.4141 11 20.457 10.8359 20.457C10.4688 20.457 10.1172 20.3789 9.78125 20.2227C9.45312 20.0742 9.14062 19.9102 8.84375 19.7305C8.82812 19.6055 8.79297 19.5039 8.73828 19.4258C8.68359 19.3398 8.61719 19.2656 8.53906 19.2031C8.46094 19.1406 8.38281 19.0781 8.30469 19.0156C8.22656 18.9453 8.16406 18.8594 8.11719 18.7578C7.97656 18.7344 7.84375 18.6914 7.71875 18.6289C7.59375 18.5586 7.46875 18.4883 7.34375 18.418C7.22656 18.3398 7.10547 18.2695 6.98047 18.207C6.85547 18.1367 6.72266 18.0859 6.58203 18.0547C6.47266 17.8828 6.35156 17.7344 6.21875 17.6094C6.08594 17.4766 5.95312 17.3359 5.82031 17.1875H5.73828C5.63672 17.1953 5.50391 17.1641 5.33984 17.0938C5.18359 17.0156 5.01953 16.9297 4.84766 16.8359C4.67578 16.7422 4.50781 16.6562 4.34375 16.5781C4.17969 16.4922 4.04688 16.4414 3.94531 16.4258C3.88281 16.3164 3.8125 16.2109 3.73438 16.1094C3.65625 16 3.57422 15.8984 3.48828 15.8047C3.44922 15.875 3.42188 15.9492 3.40625 16.0273C3.39844 16.1055 3.39453 16.1836 3.39453 16.2617C3.39453 16.418 3.41016 16.5742 3.44141 16.7305C3.47266 16.8789 3.48828 17.0312 3.48828 17.1875C3.48828 17.3438 3.46484 17.5 3.41797 17.6562C3.37109 17.8125 3.34766 17.9688 3.34766 18.125C3.34766 18.1641 3.35938 18.1953 3.38281 18.2188C3.40625 18.2422 3.41797 18.2852 3.41797 18.3477C3.41797 18.5586 3.40234 18.7305 3.37109 18.8633C3.34766 18.9961 3.3125 19.1172 3.26562 19.2266C3.21875 19.3359 3.16016 19.4492 3.08984 19.5664C3.01953 19.6758 2.94531 19.8125 2.86719 19.9766C2.69531 20.0469 2.53906 20.0742 2.39844 20.0586C2.26562 20.0508 2.10938 20.0469 1.92969 20.0469C1.84375 20.0469 1.75781 20.0625 1.67188 20.0938C1.59375 20.125 1.51172 20.1406 1.42578 20.1406H1.40234C1.19141 20.1016 1.02344 20.0273 0.898438 19.918C0.773438 19.8008 0.675781 19.6641 0.605469 19.5078C0.542969 19.3438 0.503906 19.168 0.488281 18.9805C0.472656 18.793 0.46875 18.6055 0.476562 18.418C0.484375 18.2227 0.496094 18.0312 0.511719 17.8438C0.527344 17.6562 0.535156 17.4883 0.535156 17.3398C0.535156 17.1445 0.527344 16.9492 0.511719 16.7539C0.496094 16.5508 0.457031 16.3594 0.394531 16.1797C0.425781 16.125 0.460938 16.0547 0.5 15.9688C0.539062 15.875 0.570312 15.7812 0.59375 15.6875C0.625 15.5938 0.648438 15.5039 0.664062 15.418C0.6875 15.3242 0.699219 15.2422 0.699219 15.1719C0.699219 15.1094 0.6875 15.0508 0.664062 14.9961C0.640625 14.9336 0.628906 14.8672 0.628906 14.7969C0.628906 14.7188 0.640625 14.6523 0.664062 14.5977C0.6875 14.543 0.699219 14.4805 0.699219 14.4102C0.699219 14.2852 0.671875 14.168 0.617188 14.0586C0.5625 13.9492 0.535156 13.832 0.535156 13.707C0.535156 13.6211 0.550781 13.543 0.582031 13.4727C0.613281 13.4023 0.628906 13.332 0.628906 13.2617C0.628906 13.1055 0.613281 12.9531 0.582031 12.8047C0.550781 12.6562 0.535156 12.5117 0.535156 12.3711C0.535156 12.2148 0.5625 12.0586 0.617188 11.9023C0.671875 11.7383 0.699219 11.5742 0.699219 11.4102C0.699219 11.1445 0.683594 10.8828 0.652344 10.625C0.621094 10.3594 0.605469 10.0938 0.605469 9.82812C0.605469 9.70312 0.621094 9.57422 0.652344 9.44141C0.683594 9.30859 0.699219 9.17969 0.699219 9.05469C0.699219 9 0.683594 8.95312 0.652344 8.91406C0.628906 8.875 0.601562 8.83984 0.570312 8.80859C0.539062 8.76953 0.511719 8.73047 0.488281 8.69141C0.464844 8.65234 0.457031 8.59766 0.464844 8.52734C0.550781 8.48047 0.59375 8.41797 0.59375 8.33984C0.601562 8.26172 0.605469 8.17969 0.605469 8.09375C0.605469 7.98438 0.632812 7.87891 0.6875 7.77734C0.75 7.66797 0.78125 7.55859 0.78125 7.44922C0.78125 7.36328 0.753906 7.28125 0.699219 7.20312C0.699219 7.02344 0.703125 6.84375 0.710938 6.66406C0.726562 6.48438 0.75 6.30469 0.78125 6.125C0.703125 5.98438 0.640625 5.83594 0.59375 5.67969C0.554688 5.52344 0.535156 5.35938 0.535156 5.1875C0.535156 5.08594 0.566406 4.95312 0.628906 4.78906C0.699219 4.61719 0.78125 4.45312 0.875 4.29688C0.976562 4.14062 1.08594 4.00781 1.20312 3.89844C1.32812 3.78125 1.44922 3.72266 1.56641 3.72266C2.24609 3.72266 2.77344 3.92188 3.14844 4.32031C3.53125 4.71875 3.72266 5.25 3.72266 5.91406C3.72266 6.09375 3.70703 6.27344 3.67578 6.45312C3.64453 6.63281 3.60938 6.8125 3.57031 6.99219C3.53125 7.17188 3.49609 7.35156 3.46484 7.53125C3.43359 7.71094 3.41797 7.89062 3.41797 8.07031C3.41797 8.27344 3.44531 8.48047 3.5 8.69141C3.55469 8.89453 3.58203 9.10547 3.58203 9.32422C3.58203 9.59766 3.55859 9.875 3.51172 10.1562C3.46484 10.4297 3.44141 10.7031 3.44141 10.9766C3.44141 11.0469 3.44531 11.1172 3.45312 11.1875C3.46094 11.2578 3.47266 11.3242 3.48828 11.3867H3.55859C3.70703 11.3945 3.82812 11.3789 3.92188 11.3398C4.02344 11.3008 4.11328 11.2539 4.19141 11.1992C4.26953 11.1367 4.34766 11.0742 4.42578 11.0117C4.51172 10.9492 4.61328 10.8984 4.73047 10.8594C4.83203 10.6875 4.95703 10.5391 5.10547 10.4141C5.26172 10.2891 5.41797 10.1719 5.57422 10.0625C5.61328 9.96875 5.65625 9.875 5.70312 9.78125C5.75781 9.67969 5.79688 9.57422 5.82031 9.46484C5.95312 9.38672 6.07031 9.29688 6.17188 9.19531C6.27344 9.08594 6.36719 8.97266 6.45312 8.85547C6.53906 8.73828 6.62109 8.62109 6.69922 8.50391C6.78516 8.37891 6.875 8.25781 6.96875 8.14062C7.01562 8.07812 7.06641 8.02734 7.12109 7.98828C7.17578 7.94922 7.23047 7.89844 7.28516 7.83594C7.34766 7.74219 7.40625 7.64453 7.46094 7.54297C7.51562 7.44141 7.57031 7.34375 7.625 7.25C7.6875 7.15625 7.75391 7.07422 7.82422 7.00391C7.90234 6.92578 8 6.86719 8.11719 6.82812C8.27344 6.35938 8.51562 5.97266 8.84375 5.66797L8.82031 5.57422C8.82031 5.48828 8.83594 5.41406 8.86719 5.35156C8.89844 5.28906 8.93359 5.22656 8.97266 5.16406C9.01172 5.09375 9.04688 5.01953 9.07812 4.94141C9.10938 4.85547 9.125 4.75391 9.125 4.63672C9.125 4.60547 9.16016 4.55078 9.23047 4.47266C9.30859 4.38672 9.39062 4.29297 9.47656 4.19141C9.5625 4.08984 9.64062 3.99219 9.71094 3.89844C9.78906 3.79688 9.82812 3.71484 9.82812 3.65234H9.89844C9.99219 3.65234 10.0781 3.63672 10.1562 3.60547C10.2422 3.57422 10.3242 3.53906 10.4023 3.5C10.4805 3.46094 10.5586 3.42578 10.6367 3.39453C10.7148 3.36328 10.7969 3.34766 10.8828 3.34766C11 3.34766 11.1211 3.39062 11.2461 3.47656C11.3789 3.55469 11.5 3.65234 11.6094 3.76953C11.7188 3.88672 11.8086 4.01562 11.8789 4.15625C11.9492 4.28906 11.9844 4.41016 11.9844 4.51953C11.9844 4.68359 11.9648 4.84766 11.9258 5.01172C11.8867 5.17578 11.8398 5.33594 11.7852 5.49219C11.7383 5.64844 11.6875 5.80469 11.6328 5.96094C11.5859 6.11719 11.5508 6.27734 11.5273 6.44141C11.4336 6.48047 11.3555 6.54688 11.293 6.64062C11.2383 6.73438 11.1914 6.83984 11.1523 6.95703C11.1133 7.07422 11.0781 7.19141 11.0469 7.30859C11.0156 7.41797 10.9766 7.51172 10.9297 7.58984C10.875 7.66797 10.7969 7.74609 10.6953 7.82422C10.6016 7.90234 10.5039 7.98047 10.4023 8.05859C10.3086 8.13672 10.2227 8.21094 10.1445 8.28125C10.0664 8.34375 10.0156 8.40234 9.99219 8.45703C9.85156 8.77734 9.69531 9.05078 9.52344 9.27734C9.35938 9.49609 9.19141 9.70312 9.01953 9.89844C8.84766 10.0938 8.68359 10.2891 8.52734 10.4844C8.37109 10.6797 8.23438 10.9062 8.11719 11.1641C7.99219 11.1797 7.89062 11.2188 7.8125 11.2812C7.73438 11.3438 7.66406 11.418 7.60156 11.5039C7.53906 11.582 7.47656 11.668 7.41406 11.7617C7.35938 11.8555 7.28906 11.9375 7.20312 12.0078C7.15625 12.0469 7.10156 12.0703 7.03906 12.0781C6.98438 12.0859 6.9375 12.1094 6.89844 12.1484C6.85938 12.1875 6.8125 12.2422 6.75781 12.3125C6.71094 12.3828 6.66406 12.457 6.61719 12.5352C6.57031 12.6133 6.52734 12.6914 6.48828 12.7695C6.45703 12.8398 6.44141 12.8984 6.44141 12.9453C6.32422 12.9609 6.22266 13 6.13672 13.0625C6.05859 13.125 5.98438 13.1953 5.91406 13.2734C5.84375 13.3438 5.76953 13.4141 5.69141 13.4844C5.62109 13.5547 5.53516 13.6055 5.43359 13.6367C5.44141 13.7305 5.48047 13.8164 5.55078 13.8945C5.62109 13.9648 5.70312 14.0312 5.79688 14.0938C5.89062 14.1562 5.98828 14.2148 6.08984 14.2695C6.19141 14.3164 6.27734 14.3633 6.34766 14.4102C6.43359 14.4727 6.50781 14.5391 6.57031 14.6094C6.64062 14.6797 6.72656 14.7422 6.82812 14.7969C6.92188 14.8594 7.02344 14.8984 7.13281 14.9141C7.24219 14.9297 7.33984 14.9688 7.42578 15.0312C7.55078 15.1016 7.65625 15.207 7.74219 15.3477C7.82812 15.4805 7.92969 15.582 8.04688 15.6523C8.17969 15.7305 8.32422 15.793 8.48047 15.8398C8.63672 15.8789 8.78125 15.9453 8.91406 16.0391C8.97656 16.0781 9.02344 16.1289 9.05469 16.1914C9.09375 16.2539 9.14844 16.3086 9.21875 16.3555C9.28906 16.3945 9.37891 16.4414 9.48828 16.4961C9.59766 16.5508 9.70312 16.6133 9.80469 16.6836C9.91406 16.7461 10.0117 16.8164 10.0977 16.8945C10.1914 16.9648 10.2617 17.0391 10.3086 17.1172H10.3555C10.4492 17.1094 10.5312 17.125 10.6016 17.1641C10.6797 17.1953 10.7539 17.2344 10.8242 17.2812C10.8945 17.3203 10.9688 17.3594 11.0469 17.3984C11.125 17.4297 11.2148 17.4414 11.3164 17.4336C11.4023 17.6523 11.5273 17.8438 11.6914 18.0078C11.8555 18.1641 12.0078 18.332 12.1484 18.5117Z" fill="url(#paint0_linear)"/>
<path d="M24.4648 18.3242C24.4414 18.4414 24.4102 18.543 24.3711 18.6289C24.3398 18.707 24.3086 18.7891 24.2773 18.875C24.2539 18.9531 24.2344 19.0391 24.2188 19.1328C24.2109 19.2266 24.2148 19.3398 24.2305 19.4727C24.1602 19.5117 24.1094 19.5664 24.0781 19.6367C24.0469 19.6992 24.0195 19.7695 23.9961 19.8477C23.9805 19.918 23.9609 19.9922 23.9375 20.0703C23.9219 20.1484 23.8906 20.2148 23.8438 20.2695C23.6719 20.2148 23.5 20.1914 23.3281 20.1992C23.1562 20.207 22.9844 20.2109 22.8125 20.2109C22.6328 20.2109 22.4961 20.1953 22.4023 20.1641C22.3086 20.1406 22.1953 20.0703 22.0625 19.9531C21.9688 19.8594 21.875 19.8203 21.7812 19.8359C21.6953 19.8516 21.6133 19.8555 21.5352 19.8477C21.4648 19.8398 21.4062 19.7891 21.3594 19.6953C21.3203 19.5938 21.3008 19.3906 21.3008 19.0859C21.3008 19.0391 21.2969 18.9883 21.2891 18.9336C21.2812 18.8789 21.2539 18.8281 21.207 18.7812C21.0039 18.8281 20.8164 18.9141 20.6445 19.0391C20.4727 19.1562 20.3086 19.2812 20.1523 19.4141C19.9961 19.5391 19.8398 19.6484 19.6836 19.7422C19.5273 19.8359 19.3633 19.875 19.1914 19.8594C19.1055 19.9453 19.0234 20.0312 18.9453 20.1172C18.8672 20.2031 18.7734 20.2773 18.6641 20.3398C18.6094 20.3633 18.5156 20.3906 18.3828 20.4219C18.2578 20.4531 18.125 20.4805 17.9844 20.5039C17.8438 20.5273 17.707 20.5469 17.5742 20.5625C17.4414 20.5859 17.3477 20.5977 17.293 20.5977C17.1289 20.5977 16.9375 20.543 16.7188 20.4336C16.5 20.332 16.2812 20.2227 16.0625 20.1055C15.8516 19.9883 15.6523 19.8867 15.4648 19.8008C15.2773 19.707 15.125 19.6758 15.0078 19.707C14.9219 19.6367 14.8594 19.5508 14.8203 19.4492C14.7812 19.3398 14.7188 19.2422 14.6328 19.1562C14.5312 19.0703 14.4219 19 14.3047 18.9453C14.1875 18.8906 14.0859 18.8086 14 18.6992C13.9453 18.6211 13.9023 18.5391 13.8711 18.4531C13.8477 18.3594 13.8203 18.2656 13.7891 18.1719C13.7656 18.0703 13.7344 17.9727 13.6953 17.8789C13.6641 17.7852 13.6133 17.6992 13.543 17.6211C13.5742 17.4883 13.5938 17.3242 13.6016 17.1289C13.6094 16.9336 13.6211 16.7383 13.6367 16.543C13.6602 16.3398 13.6953 16.1523 13.7422 15.9805C13.7969 15.8086 13.8828 15.6836 14 15.6055V15.5117C14 15.2695 14.0391 15.0742 14.1172 14.9258C14.1953 14.7695 14.293 14.6328 14.4102 14.5156C14.5273 14.3906 14.6562 14.2734 14.7969 14.1641C14.9375 14.0547 15.0664 13.9219 15.1836 13.7656C15.2539 13.7109 15.3281 13.6914 15.4062 13.707C15.4844 13.7148 15.5625 13.6992 15.6406 13.6602L15.7109 13.5195C15.75 13.5039 15.7852 13.5 15.8164 13.5078C15.8477 13.5156 15.875 13.5195 15.8984 13.5195C15.9375 13.5195 15.9766 13.5039 16.0156 13.4727C16.0547 13.4414 16.0938 13.4102 16.1328 13.3789C16.1719 13.3398 16.2109 13.3047 16.25 13.2734C16.2969 13.2422 16.3477 13.2266 16.4023 13.2266C16.4258 13.2266 16.4531 13.2344 16.4844 13.25C16.5156 13.2578 16.543 13.2695 16.5664 13.2852C16.6211 13.1992 16.6836 13.125 16.7539 13.0625C16.832 12.9922 16.9102 12.9258 16.9883 12.8633C17.0664 12.8008 17.1406 12.7383 17.2109 12.6758C17.2891 12.6055 17.3555 12.5273 17.4102 12.4414C17.4414 12.457 17.4883 12.4648 17.5508 12.4648C17.6211 12.4648 17.6758 12.4492 17.7148 12.418C17.7539 12.3789 17.793 12.3398 17.832 12.3008C17.8789 12.2539 17.9297 12.2148 17.9844 12.1836C18.0391 12.1445 18.1211 12.125 18.2305 12.125C18.2539 12.125 18.3008 12.1094 18.3711 12.0781C18.4414 12.0469 18.5156 12.0117 18.5938 11.9727C18.6719 11.9258 18.7461 11.8828 18.8164 11.8438C18.8867 11.7969 18.9375 11.7617 18.9688 11.7383L19.0977 11.7148C19.168 11.7148 19.2344 11.7305 19.2969 11.7617C19.3594 11.7852 19.4258 11.8047 19.4961 11.8203C19.5977 11.7188 19.6992 11.6211 19.8008 11.5273C19.9023 11.4336 19.9844 11.3203 20.0469 11.1875C20.1484 11.1562 20.2656 11.0977 20.3984 11.0117C20.5312 10.9258 20.6562 10.8281 20.7734 10.7188C20.8984 10.6094 21 10.4922 21.0781 10.3672C21.1641 10.2344 21.207 10.1094 21.207 9.99219C21.207 9.86719 21.1719 9.74609 21.1016 9.62891C21.0391 9.51172 20.9648 9.39844 20.8789 9.28906C20.793 9.17188 20.707 9.05469 20.6211 8.9375C20.5352 8.82031 20.4727 8.69922 20.4336 8.57422H20.3867C20.293 8.57422 20.207 8.53125 20.1289 8.44531C20.0586 8.35156 19.9766 8.29297 19.8828 8.26953C19.8047 8.23828 19.7227 8.22266 19.6367 8.22266C19.5508 8.22266 19.4648 8.22266 19.3789 8.22266C19.293 8.22266 19.207 8.21484 19.1211 8.19922C19.043 8.18359 18.9688 8.14844 18.8984 8.09375C18.7422 8.125 18.6172 8.18359 18.5234 8.26953C18.4297 8.34766 18.3359 8.42969 18.2422 8.51562C18.1484 8.60156 18.0391 8.67578 17.9141 8.73828C17.7891 8.79297 17.6211 8.8125 17.4102 8.79688C17.2695 9.08594 17.1406 9.38672 17.0234 9.69922C16.9141 10.0117 16.7617 10.3008 16.5664 10.5664C16.5195 10.7383 16.4727 10.9102 16.4258 11.082C16.3867 11.2461 16.3086 11.3867 16.1914 11.5039C16.0352 11.5508 15.875 11.5742 15.7109 11.5742C15.5391 11.5742 15.3477 11.543 15.1367 11.4805C14.9336 11.4102 14.7422 11.3164 14.5625 11.1992C14.3828 11.082 14.2305 10.9453 14.1055 10.7891C13.9883 10.625 13.9297 10.4492 13.9297 10.2617C13.9297 10.0586 13.9688 9.85938 14.0469 9.66406C14.1328 9.46094 14.1758 9.25 14.1758 9.03125C14.2852 8.99219 14.3711 8.92969 14.4336 8.84375C14.4961 8.75781 14.5508 8.66797 14.5977 8.57422C14.6523 8.47266 14.707 8.37891 14.7617 8.29297C14.8242 8.20703 14.9062 8.14062 15.0078 8.09375V8C15.0078 7.92969 15.0273 7.87891 15.0664 7.84766C15.1055 7.80859 15.1133 7.73828 15.0898 7.63672C15.4492 7.42578 15.7344 7.14062 15.9453 6.78125C16.0781 6.71875 16.2188 6.66797 16.3672 6.62891C16.5156 6.58984 16.6562 6.53516 16.7891 6.46484C16.9062 6.41797 17.0156 6.35156 17.1172 6.26562C17.2266 6.17969 17.3477 6.11719 17.4805 6.07812C17.6758 6.03906 17.8672 6.03516 18.0547 6.06641C18.25 6.08984 18.4375 6.10156 18.6172 6.10156C18.7734 6.10156 18.9062 6.07031 19.0156 6.00781C19.1328 5.94531 19.2695 5.91406 19.4258 5.91406C19.582 5.91406 19.7383 5.92578 19.8945 5.94922C20.0508 5.96484 20.207 5.98438 20.3633 6.00781C20.4336 6.02344 20.4961 6.05078 20.5508 6.08984C20.6133 6.12109 20.6797 6.14844 20.75 6.17188C20.9922 6.21875 21.168 6.24609 21.2773 6.25391C21.3867 6.25391 21.4805 6.26953 21.5586 6.30078C21.6367 6.33203 21.7188 6.39453 21.8047 6.48828C21.8906 6.57422 22.0273 6.72656 22.2148 6.94531H22.2617C22.3633 6.94531 22.4688 6.98438 22.5781 7.0625C22.6875 7.13281 22.7891 7.22266 22.8828 7.33203C22.9844 7.43359 23.0703 7.54297 23.1406 7.66016C23.2109 7.76953 23.2617 7.86719 23.293 7.95312C23.3398 8.07031 23.3672 8.19922 23.375 8.33984C23.3828 8.47266 23.4102 8.59766 23.457 8.71484C23.5039 8.82422 23.5625 8.92578 23.6328 9.01953C23.7031 9.11328 23.7695 9.20703 23.832 9.30078C23.9023 9.39453 23.9609 9.49219 24.0078 9.59375C24.0625 9.69531 24.0898 9.80469 24.0898 9.92188C24.0898 10.0781 24.0703 10.2305 24.0312 10.3789C24 10.5195 23.9844 10.6641 23.9844 10.8125C23.9844 10.9453 24.0117 11.0742 24.0664 11.1992C24.1289 11.3164 24.1602 11.4414 24.1602 11.5742C24.1602 11.7461 24.1289 11.9102 24.0664 12.0664C24.0117 12.2227 23.9844 12.3867 23.9844 12.5586C23.9844 12.7852 24.0117 13.0117 24.0664 13.2383C24.1289 13.4648 24.207 13.6875 24.3008 13.9062C24.2539 14.0469 24.2305 14.1992 24.2305 14.3633C24.2305 14.5898 24.2539 14.8125 24.3008 15.0312C24.3477 15.2422 24.3711 15.457 24.3711 15.6758C24.3711 15.7852 24.3594 15.8867 24.3359 15.9805C24.3125 16.0742 24.2852 16.168 24.2539 16.2617C24.2227 16.3555 24.1953 16.4492 24.1719 16.543C24.1484 16.6367 24.1367 16.7422 24.1367 16.8594C24.1367 17.1094 24.168 17.3555 24.2305 17.5977C24.293 17.8398 24.3711 18.082 24.4648 18.3242ZM21.6875 14.5039C21.6875 14.3555 21.6758 14.2148 21.6523 14.082C21.6289 13.9492 21.6172 13.8086 21.6172 13.6602C21.6172 13.4961 21.5898 13.375 21.5352 13.2969C21.4805 13.2188 21.3711 13.1875 21.207 13.2031H21.0547C20.9453 13.3047 20.8438 13.4141 20.75 13.5312C20.6641 13.6484 20.5586 13.75 20.4336 13.8359C20.3242 13.9062 20.2031 13.957 20.0703 13.9883C19.9375 14.0195 19.8281 14.0938 19.7422 14.2109H19.6953C19.5859 14.2109 19.4922 14.2305 19.4141 14.2695C19.3359 14.3008 19.2578 14.3359 19.1797 14.375C19.1016 14.4062 19.0156 14.4336 18.9219 14.457C18.8359 14.4805 18.7266 14.4805 18.5938 14.457C18.4688 14.6523 18.3477 14.8555 18.2305 15.0664C18.1133 15.2695 17.9453 15.4258 17.7266 15.5352L17.5273 15.5117C17.3867 15.5039 17.2422 15.5195 17.0938 15.5586C16.9531 15.5977 16.8242 15.6562 16.707 15.7344C16.5977 15.8125 16.5078 15.9102 16.4375 16.0273C16.3672 16.1445 16.332 16.2852 16.332 16.4492C16.332 16.6602 16.3633 16.8203 16.4258 16.9297C16.4883 17.0312 16.5664 17.1172 16.6602 17.1875C16.7539 17.25 16.8555 17.3086 16.9648 17.3633C17.0742 17.418 17.1758 17.5039 17.2695 17.6211C17.3555 17.6367 17.4453 17.6406 17.5391 17.6328C17.6328 17.625 17.7266 17.6211 17.8203 17.6211C17.8828 17.6211 17.9453 17.625 18.0078 17.6328C18.0781 17.6328 18.1367 17.6523 18.1836 17.6914C18.2773 17.6055 18.3555 17.543 18.418 17.5039C18.4805 17.457 18.5859 17.4414 18.7344 17.457C18.9141 17.2305 19.1367 17.0547 19.4023 16.9297C19.668 16.8047 19.9336 16.6992 20.1992 16.6133C20.2148 16.5273 20.25 16.4531 20.3047 16.3906C20.3672 16.3281 20.4336 16.2734 20.5039 16.2266C20.5742 16.1719 20.6445 16.125 20.7148 16.0859C20.7852 16.0391 20.8438 15.9844 20.8906 15.9219C20.9375 15.875 21.0039 15.7852 21.0898 15.6523C21.1836 15.5195 21.2734 15.3789 21.3594 15.2305C21.4531 15.0742 21.5312 14.9297 21.5938 14.7969C21.6562 14.6641 21.6875 14.5664 21.6875 14.5039Z" fill="url(#paint1_linear)"/>
<path d="M37.5312 16.6133C37.5312 16.6758 37.5117 16.7227 37.4727 16.7539C37.4414 16.7852 37.4062 16.8125 37.3672 16.8359C37.3438 16.9297 37.332 17.0234 37.332 17.1172C37.3398 17.2109 37.3242 17.3008 37.2852 17.3867C37.2461 17.4727 37.1953 17.5586 37.1328 17.6445C37.0781 17.7305 37.0195 17.8164 36.957 17.9023C36.9023 17.9883 36.8516 18.0781 36.8047 18.1719C36.7656 18.2656 36.7422 18.3633 36.7344 18.4648C36.625 18.5039 36.5312 18.5625 36.4531 18.6406C36.3828 18.7188 36.3125 18.8008 36.2422 18.8867C36.1797 18.9727 36.1133 19.0625 36.043 19.1562C35.9805 19.25 35.9102 19.332 35.832 19.4023C35.6836 19.5195 35.4922 19.6445 35.2578 19.7773C35.0234 19.9023 34.8203 20.0078 34.6484 20.0938C34.4844 20.1641 34.3125 20.2148 34.1328 20.2461C33.9609 20.2773 33.7852 20.3047 33.6055 20.3281C33.4258 20.3516 33.2461 20.375 33.0664 20.3984C32.8945 20.4297 32.7266 20.4805 32.5625 20.5508C32.4219 20.457 32.2734 20.3867 32.1172 20.3398C31.9609 20.293 31.8008 20.25 31.6367 20.2109C31.4805 20.1797 31.3203 20.1445 31.1562 20.1055C31 20.0664 30.8516 20.0078 30.7109 19.9297C30.5547 19.8516 30.4219 19.7578 30.3125 19.6484C30.2109 19.5312 30.1172 19.418 30.0312 19.3086C29.9531 19.1914 29.875 19.0859 29.7969 18.9922C29.7188 18.8906 29.6328 18.8203 29.5391 18.7812C29.5234 18.8281 29.5117 18.8789 29.5039 18.9336C29.4961 18.9883 29.4922 19.0391 29.4922 19.0859C29.4922 19.1953 29.5 19.3008 29.5156 19.4023C29.5312 19.4961 29.5391 19.5977 29.5391 19.707C29.5 19.7148 29.4531 19.7734 29.3984 19.8828C29.3516 19.9922 29.2852 20.1133 29.1992 20.2461C29.1211 20.3789 29.0195 20.5 28.8945 20.6094C28.7695 20.7188 28.6172 20.7734 28.4375 20.7734C28.2109 20.7734 27.9922 20.7188 27.7812 20.6094C27.5703 20.5078 27.3555 20.4102 27.1367 20.3164C27.0039 20.0742 26.9062 19.8203 26.8438 19.5547C26.7812 19.2812 26.75 19.0039 26.75 18.7227C26.75 18.5352 26.7617 18.3477 26.7852 18.1602C26.8164 17.9648 26.832 17.7773 26.832 17.5977C26.832 17.4805 26.8203 17.3633 26.7969 17.2461C26.7812 17.1289 26.7422 17.0234 26.6797 16.9297C26.6797 16.7734 26.7188 16.6289 26.7969 16.4961C26.8828 16.3633 26.9258 16.2188 26.9258 16.0625C26.9258 15.9922 26.9102 15.9258 26.8789 15.8633C26.8477 15.8008 26.832 15.7305 26.832 15.6523C26.832 15.5117 26.8711 15.3828 26.9492 15.2656C27.0273 15.1406 27.0664 15.0078 27.0664 14.8672C27.0664 14.7422 27.0547 14.6289 27.0312 14.5273C27.0078 14.4258 26.9961 14.3203 26.9961 14.2109C26.9961 13.9453 27.0352 13.6914 27.1133 13.4492C27.1914 13.1992 27.2305 12.9492 27.2305 12.6992C27.2305 12.5977 27.2148 12.4961 27.1836 12.3945C27.1523 12.293 27.1172 12.1914 27.0781 12.0898C27.0391 11.9883 27.0039 11.8867 26.9727 11.7852C26.9414 11.6836 26.9258 11.5742 26.9258 11.457C26.9258 11.2305 26.9609 11.0078 27.0312 10.7891C27.1016 10.5625 27.1367 10.3359 27.1367 10.1094C27.1367 10 27.125 9.89844 27.1016 9.80469C27.0781 9.70312 27.0664 9.59766 27.0664 9.48828C27.0664 9.39453 27.0781 9.30469 27.1016 9.21875C27.125 9.125 27.1367 9.03125 27.1367 8.9375C27.1367 8.78125 27.1133 8.62891 27.0664 8.48047C27.0195 8.33203 26.9961 8.17969 26.9961 8.02344C26.9961 7.78125 27.0234 7.54688 27.0781 7.32031C27.1328 7.08594 27.1602 6.85547 27.1602 6.62891C27.1602 6.38672 27.1328 6.14844 27.0781 5.91406C27.0234 5.67188 26.9961 5.42969 26.9961 5.1875C26.9961 5.07031 27.0195 4.95312 27.0664 4.83594C27.1133 4.71094 27.1367 4.58203 27.1367 4.44922C27.1367 4.33984 27.1172 4.23828 27.0781 4.14453C27.0391 4.04297 27.0117 3.94531 26.9961 3.85156C26.9492 3.5625 26.918 3.25391 26.9023 2.92578C26.8867 2.59766 26.8789 2.28906 26.8789 2C26.8789 1.58594 26.9766 1.28906 27.1719 1.10938C27.375 0.921875 27.6758 0.828125 28.0742 0.828125C28.3008 0.828125 28.5352 0.867188 28.7773 0.945312C29.0195 1.01562 29.2266 1.12891 29.3984 1.28516C29.4688 1.49609 29.5 1.71484 29.4922 1.94141C29.4844 2.16016 29.5 2.37891 29.5391 2.59766C29.5625 2.75391 29.6055 2.91016 29.668 3.06641C29.7383 3.22266 29.7734 3.37891 29.7734 3.53516C29.7734 3.68359 29.7461 3.82812 29.6914 3.96875C29.6367 4.10156 29.6094 4.24609 29.6094 4.40234C29.6094 4.65234 29.6367 4.89844 29.6914 5.14062C29.7461 5.38281 29.7734 5.625 29.7734 5.86719C29.7734 6.04688 29.7461 6.22266 29.6914 6.39453C29.6367 6.56641 29.6094 6.74219 29.6094 6.92188C29.6094 7.01562 29.6133 7.08594 29.6211 7.13281C29.6289 7.17969 29.6367 7.22266 29.6445 7.26172C29.6523 7.29297 29.6602 7.33203 29.668 7.37891C29.6758 7.42578 29.6797 7.49609 29.6797 7.58984C29.6797 7.66797 29.6875 7.72656 29.7031 7.76562C29.8203 7.74219 29.9258 7.69141 30.0195 7.61328C30.1211 7.52734 30.2148 7.4375 30.3008 7.34375C30.3867 7.24219 30.4727 7.14844 30.5586 7.0625C30.6523 6.96875 30.7539 6.89844 30.8633 6.85156C30.9414 6.8125 31.043 6.77734 31.168 6.74609C31.3008 6.70703 31.4375 6.67188 31.5781 6.64062C31.7188 6.60156 31.8555 6.57031 31.9883 6.54688C32.1211 6.51562 32.2344 6.48828 32.3281 6.46484C32.5078 6.40234 32.6836 6.32422 32.8555 6.23047C33.0273 6.12891 33.2109 6.07812 33.4062 6.07812C33.4219 6.07812 33.5 6.09766 33.6406 6.13672C33.7812 6.17578 33.9492 6.22266 34.1445 6.27734C34.3477 6.33203 34.5625 6.39453 34.7891 6.46484C35.0234 6.53516 35.2422 6.60156 35.4453 6.66406C35.6562 6.72656 35.8359 6.78125 35.9844 6.82812C36.1406 6.875 36.2383 6.90625 36.2773 6.92188C36.3555 7.21094 36.4805 7.46484 36.6523 7.68359C36.8242 7.89453 37.0352 8.07812 37.2852 8.23438C37.2695 8.27344 37.2617 8.32422 37.2617 8.38672C37.2617 8.45703 37.2891 8.55078 37.3438 8.66797C37.4062 8.78516 37.4766 8.91406 37.5547 9.05469C37.6328 9.1875 37.707 9.32422 37.7773 9.46484C37.8477 9.60547 37.8945 9.73438 37.918 9.85156C37.9414 9.99219 37.9414 10.1367 37.918 10.2852C37.9023 10.4336 37.8945 10.5742 37.8945 10.707C37.8945 10.8789 37.9219 11.0352 37.9766 11.1758C38.0312 11.3164 38.0586 11.4648 38.0586 11.6211C38.0586 11.7539 38.0469 11.8867 38.0234 12.0195C38 12.1523 37.9883 12.2852 37.9883 12.418C37.9883 12.4961 37.9961 12.5977 38.0117 12.7227C38.0273 12.8477 38.043 12.9805 38.0586 13.1211C38.0742 13.2617 38.0898 13.3984 38.1055 13.5312C38.1211 13.6641 38.1289 13.7734 38.1289 13.8594V13.9062C38.1289 14.0391 38.0977 14.168 38.0352 14.293C37.9727 14.4102 37.9336 14.5352 37.918 14.668C37.9023 14.7773 37.8906 14.8867 37.8828 14.9961C37.8828 15.1055 37.8789 15.2188 37.8711 15.3359C37.8633 15.4453 37.8516 15.5547 37.8359 15.6641C37.8203 15.7734 37.7891 15.8828 37.7422 15.9922C37.7031 16.0781 37.6719 16.1367 37.6484 16.168C37.625 16.1992 37.6016 16.2305 37.5781 16.2617C37.5625 16.2852 37.5508 16.3203 37.543 16.3672C37.5352 16.4141 37.5312 16.4961 37.5312 16.6133ZM35.6094 11.7734C35.6094 11.7109 35.6094 11.6523 35.6094 11.5977C35.6094 11.5352 35.6016 11.4727 35.5859 11.4102C35.5625 11.3242 35.5273 11.2461 35.4805 11.1758C35.4336 11.0977 35.3906 11.0234 35.3516 10.9531C35.3125 10.8438 35.2852 10.7383 35.2695 10.6367C35.2617 10.5273 35.2383 10.4258 35.1992 10.332C35.1602 10.2461 35.1172 10.168 35.0703 10.0977C35.0234 10.0195 34.9883 9.9375 34.9648 9.85156C34.9414 9.76562 34.9219 9.66016 34.9062 9.53516C34.8906 9.40234 34.8633 9.30469 34.8242 9.24219C34.793 9.20312 34.7266 9.14844 34.625 9.07812C34.5312 9.00781 34.4258 8.94141 34.3086 8.87891C34.1914 8.80859 34.0781 8.75 33.9688 8.70312C33.8594 8.64844 33.7812 8.62109 33.7344 8.62109C33.4453 8.62109 33.1875 8.65234 32.9609 8.71484C32.7422 8.77734 32.5469 8.84766 32.375 8.92578C32.2031 9.00391 32.0547 9.07422 31.9297 9.13672C31.8125 9.19922 31.7109 9.23438 31.625 9.24219C31.5859 9.28906 31.4961 9.40625 31.3555 9.59375C31.2148 9.78125 31.0625 9.98047 30.8984 10.1914C30.7422 10.4023 30.5977 10.5977 30.4648 10.7773C30.332 10.957 30.2539 11.0625 30.2305 11.0938C30.1836 11.1953 30.1562 11.3008 30.1484 11.4102C30.1484 11.5195 30.1289 11.6211 30.0898 11.7148C30.0273 11.8477 29.9648 11.9492 29.9023 12.0195C29.8477 12.0898 29.7969 12.1602 29.75 12.2305C29.7031 12.3008 29.6641 12.3828 29.6328 12.4766C29.6016 12.5703 29.5859 12.7031 29.5859 12.875C29.5859 12.9453 29.5859 13.0586 29.5859 13.2148C29.5938 13.3633 29.6016 13.5391 29.6094 13.7422C29.625 13.9375 29.6445 14.1484 29.668 14.375C29.6992 14.6016 29.7383 14.8242 29.7852 15.043C29.832 15.2617 29.8906 15.4688 29.9609 15.6641C30.0391 15.8516 30.1289 16.0078 30.2305 16.1328C30.2852 16.1953 30.3398 16.2305 30.3945 16.2383C30.457 16.2461 30.5078 16.2695 30.5469 16.3086V16.4492C30.6875 16.5977 30.8008 16.7148 30.8867 16.8008C30.9805 16.8867 31.0703 16.9609 31.1562 17.0234C31.25 17.0781 31.3477 17.1328 31.4492 17.1875C31.5586 17.2344 31.6992 17.3008 31.8711 17.3867C31.9492 17.4258 32.0078 17.4609 32.0469 17.4922C32.0859 17.5234 32.125 17.5547 32.1641 17.5859C32.2031 17.6094 32.25 17.6289 32.3047 17.6445C32.3594 17.6602 32.4453 17.668 32.5625 17.668C32.7344 17.668 32.9297 17.625 33.1484 17.5391C33.375 17.4531 33.5938 17.3438 33.8047 17.2109C34.0234 17.0703 34.2227 16.9219 34.4023 16.7656C34.5898 16.6016 34.7305 16.4492 34.8242 16.3086C34.8945 16.1758 34.9453 16.0352 34.9766 15.8867C35.0078 15.7305 35.0586 15.582 35.1289 15.4414L35.2695 15.3711C35.2852 15.332 35.2891 15.2891 35.2812 15.2422C35.2734 15.1953 35.2695 15.1484 35.2695 15.1016V15.0547C35.3789 14.9219 35.457 14.7109 35.5039 14.4219C35.5508 14.125 35.582 13.8125 35.5977 13.4844C35.6133 13.1484 35.6172 12.8242 35.6094 12.5117C35.6094 12.1914 35.6094 11.9453 35.6094 11.7734Z" fill="url(#paint2_linear)"/>
<path d="M50.6914 18.3242C50.668 18.4414 50.6367 18.543 50.5977 18.6289C50.5664 18.707 50.5352 18.7891 50.5039 18.875C50.4805 18.9531 50.4609 19.0391 50.4453 19.1328C50.4375 19.2266 50.4414 19.3398 50.457 19.4727C50.3867 19.5117 50.3359 19.5664 50.3047 19.6367C50.2734 19.6992 50.2461 19.7695 50.2227 19.8477C50.207 19.918 50.1875 19.9922 50.1641 20.0703C50.1484 20.1484 50.1172 20.2148 50.0703 20.2695C49.8984 20.2148 49.7266 20.1914 49.5547 20.1992C49.3828 20.207 49.2109 20.2109 49.0391 20.2109C48.8594 20.2109 48.7227 20.1953 48.6289 20.1641C48.5352 20.1406 48.4219 20.0703 48.2891 19.9531C48.1953 19.8594 48.1016 19.8203 48.0078 19.8359C47.9219 19.8516 47.8398 19.8555 47.7617 19.8477C47.6914 19.8398 47.6328 19.7891 47.5859 19.6953C47.5469 19.5938 47.5273 19.3906 47.5273 19.0859C47.5273 19.0391 47.5234 18.9883 47.5156 18.9336C47.5078 18.8789 47.4805 18.8281 47.4336 18.7812C47.2305 18.8281 47.043 18.9141 46.8711 19.0391C46.6992 19.1562 46.5352 19.2812 46.3789 19.4141C46.2227 19.5391 46.0664 19.6484 45.9102 19.7422C45.7539 19.8359 45.5898 19.875 45.418 19.8594C45.332 19.9453 45.25 20.0312 45.1719 20.1172C45.0938 20.2031 45 20.2773 44.8906 20.3398C44.8359 20.3633 44.7422 20.3906 44.6094 20.4219C44.4844 20.4531 44.3516 20.4805 44.2109 20.5039C44.0703 20.5273 43.9336 20.5469 43.8008 20.5625C43.668 20.5859 43.5742 20.5977 43.5195 20.5977C43.3555 20.5977 43.1641 20.543 42.9453 20.4336C42.7266 20.332 42.5078 20.2227 42.2891 20.1055C42.0781 19.9883 41.8789 19.8867 41.6914 19.8008C41.5039 19.707 41.3516 19.6758 41.2344 19.707C41.1484 19.6367 41.0859 19.5508 41.0469 19.4492C41.0078 19.3398 40.9453 19.2422 40.8594 19.1562C40.7578 19.0703 40.6484 19 40.5312 18.9453C40.4141 18.8906 40.3125 18.8086 40.2266 18.6992C40.1719 18.6211 40.1289 18.5391 40.0977 18.4531C40.0742 18.3594 40.0469 18.2656 40.0156 18.1719C39.9922 18.0703 39.9609 17.9727 39.9219 17.8789C39.8906 17.7852 39.8398 17.6992 39.7695 17.6211C39.8008 17.4883 39.8203 17.3242 39.8281 17.1289C39.8359 16.9336 39.8477 16.7383 39.8633 16.543C39.8867 16.3398 39.9219 16.1523 39.9688 15.9805C40.0234 15.8086 40.1094 15.6836 40.2266 15.6055V15.5117C40.2266 15.2695 40.2656 15.0742 40.3438 14.9258C40.4219 14.7695 40.5195 14.6328 40.6367 14.5156C40.7539 14.3906 40.8828 14.2734 41.0234 14.1641C41.1641 14.0547 41.293 13.9219 41.4102 13.7656C41.4805 13.7109 41.5547 13.6914 41.6328 13.707C41.7109 13.7148 41.7891 13.6992 41.8672 13.6602L41.9375 13.5195C41.9766 13.5039 42.0117 13.5 42.043 13.5078C42.0742 13.5156 42.1016 13.5195 42.125 13.5195C42.1641 13.5195 42.2031 13.5039 42.2422 13.4727C42.2812 13.4414 42.3203 13.4102 42.3594 13.3789C42.3984 13.3398 42.4375 13.3047 42.4766 13.2734C42.5234 13.2422 42.5742 13.2266 42.6289 13.2266C42.6523 13.2266 42.6797 13.2344 42.7109 13.25C42.7422 13.2578 42.7695 13.2695 42.793 13.2852C42.8477 13.1992 42.9102 13.125 42.9805 13.0625C43.0586 12.9922 43.1367 12.9258 43.2148 12.8633C43.293 12.8008 43.3672 12.7383 43.4375 12.6758C43.5156 12.6055 43.582 12.5273 43.6367 12.4414C43.668 12.457 43.7148 12.4648 43.7773 12.4648C43.8477 12.4648 43.9023 12.4492 43.9414 12.418C43.9805 12.3789 44.0195 12.3398 44.0586 12.3008C44.1055 12.2539 44.1562 12.2148 44.2109 12.1836C44.2656 12.1445 44.3477 12.125 44.457 12.125C44.4805 12.125 44.5273 12.1094 44.5977 12.0781C44.668 12.0469 44.7422 12.0117 44.8203 11.9727C44.8984 11.9258 44.9727 11.8828 45.043 11.8438C45.1133 11.7969 45.1641 11.7617 45.1953 11.7383L45.3242 11.7148C45.3945 11.7148 45.4609 11.7305 45.5234 11.7617C45.5859 11.7852 45.6523 11.8047 45.7227 11.8203C45.8242 11.7188 45.9258 11.6211 46.0273 11.5273C46.1289 11.4336 46.2109 11.3203 46.2734 11.1875C46.375 11.1562 46.4922 11.0977 46.625 11.0117C46.7578 10.9258 46.8828 10.8281 47 10.7188C47.125 10.6094 47.2266 10.4922 47.3047 10.3672C47.3906 10.2344 47.4336 10.1094 47.4336 9.99219C47.4336 9.86719 47.3984 9.74609 47.3281 9.62891C47.2656 9.51172 47.1914 9.39844 47.1055 9.28906C47.0195 9.17188 46.9336 9.05469 46.8477 8.9375C46.7617 8.82031 46.6992 8.69922 46.6602 8.57422H46.6133C46.5195 8.57422 46.4336 8.53125 46.3555 8.44531C46.2852 8.35156 46.2031 8.29297 46.1094 8.26953C46.0312 8.23828 45.9492 8.22266 45.8633 8.22266C45.7773 8.22266 45.6914 8.22266 45.6055 8.22266C45.5195 8.22266 45.4336 8.21484 45.3477 8.19922C45.2695 8.18359 45.1953 8.14844 45.125 8.09375C44.9688 8.125 44.8438 8.18359 44.75 8.26953C44.6562 8.34766 44.5625 8.42969 44.4688 8.51562C44.375 8.60156 44.2656 8.67578 44.1406 8.73828C44.0156 8.79297 43.8477 8.8125 43.6367 8.79688C43.4961 9.08594 43.3672 9.38672 43.25 9.69922C43.1406 10.0117 42.9883 10.3008 42.793 10.5664C42.7461 10.7383 42.6992 10.9102 42.6523 11.082C42.6133 11.2461 42.5352 11.3867 42.418 11.5039C42.2617 11.5508 42.1016 11.5742 41.9375 11.5742C41.7656 11.5742 41.5742 11.543 41.3633 11.4805C41.1602 11.4102 40.9688 11.3164 40.7891 11.1992C40.6094 11.082 40.457 10.9453 40.332 10.7891C40.2148 10.625 40.1562 10.4492 40.1562 10.2617C40.1562 10.0586 40.1953 9.85938 40.2734 9.66406C40.3594 9.46094 40.4023 9.25 40.4023 9.03125C40.5117 8.99219 40.5977 8.92969 40.6602 8.84375C40.7227 8.75781 40.7773 8.66797 40.8242 8.57422C40.8789 8.47266 40.9336 8.37891 40.9883 8.29297C41.0508 8.20703 41.1328 8.14062 41.2344 8.09375V8C41.2344 7.92969 41.2539 7.87891 41.293 7.84766C41.332 7.80859 41.3398 7.73828 41.3164 7.63672C41.6758 7.42578 41.9609 7.14062 42.1719 6.78125C42.3047 6.71875 42.4453 6.66797 42.5938 6.62891C42.7422 6.58984 42.8828 6.53516 43.0156 6.46484C43.1328 6.41797 43.2422 6.35156 43.3438 6.26562C43.4531 6.17969 43.5742 6.11719 43.707 6.07812C43.9023 6.03906 44.0938 6.03516 44.2812 6.06641C44.4766 6.08984 44.6641 6.10156 44.8438 6.10156C45 6.10156 45.1328 6.07031 45.2422 6.00781C45.3594 5.94531 45.4961 5.91406 45.6523 5.91406C45.8086 5.91406 45.9648 5.92578 46.1211 5.94922C46.2773 5.96484 46.4336 5.98438 46.5898 6.00781C46.6602 6.02344 46.7227 6.05078 46.7773 6.08984C46.8398 6.12109 46.9062 6.14844 46.9766 6.17188C47.2188 6.21875 47.3945 6.24609 47.5039 6.25391C47.6133 6.25391 47.707 6.26953 47.7852 6.30078C47.8633 6.33203 47.9453 6.39453 48.0312 6.48828C48.1172 6.57422 48.2539 6.72656 48.4414 6.94531H48.4883C48.5898 6.94531 48.6953 6.98438 48.8047 7.0625C48.9141 7.13281 49.0156 7.22266 49.1094 7.33203C49.2109 7.43359 49.2969 7.54297 49.3672 7.66016C49.4375 7.76953 49.4883 7.86719 49.5195 7.95312C49.5664 8.07031 49.5938 8.19922 49.6016 8.33984C49.6094 8.47266 49.6367 8.59766 49.6836 8.71484C49.7305 8.82422 49.7891 8.92578 49.8594 9.01953C49.9297 9.11328 49.9961 9.20703 50.0586 9.30078C50.1289 9.39453 50.1875 9.49219 50.2344 9.59375C50.2891 9.69531 50.3164 9.80469 50.3164 9.92188C50.3164 10.0781 50.2969 10.2305 50.2578 10.3789C50.2266 10.5195 50.2109 10.6641 50.2109 10.8125C50.2109 10.9453 50.2383 11.0742 50.293 11.1992C50.3555 11.3164 50.3867 11.4414 50.3867 11.5742C50.3867 11.7461 50.3555 11.9102 50.293 12.0664C50.2383 12.2227 50.2109 12.3867 50.2109 12.5586C50.2109 12.7852 50.2383 13.0117 50.293 13.2383C50.3555 13.4648 50.4336 13.6875 50.5273 13.9062C50.4805 14.0469 50.457 14.1992 50.457 14.3633C50.457 14.5898 50.4805 14.8125 50.5273 15.0312C50.5742 15.2422 50.5977 15.457 50.5977 15.6758C50.5977 15.7852 50.5859 15.8867 50.5625 15.9805C50.5391 16.0742 50.5117 16.168 50.4805 16.2617C50.4492 16.3555 50.4219 16.4492 50.3984 16.543C50.375 16.6367 50.3633 16.7422 50.3633 16.8594C50.3633 17.1094 50.3945 17.3555 50.457 17.5977C50.5195 17.8398 50.5977 18.082 50.6914 18.3242ZM47.9141 14.5039C47.9141 14.3555 47.9023 14.2148 47.8789 14.082C47.8555 13.9492 47.8438 13.8086 47.8438 13.6602C47.8438 13.4961 47.8164 13.375 47.7617 13.2969C47.707 13.2188 47.5977 13.1875 47.4336 13.2031H47.2812C47.1719 13.3047 47.0703 13.4141 46.9766 13.5312C46.8906 13.6484 46.7852 13.75 46.6602 13.8359C46.5508 13.9062 46.4297 13.957 46.2969 13.9883C46.1641 14.0195 46.0547 14.0938 45.9688 14.2109H45.9219C45.8125 14.2109 45.7188 14.2305 45.6406 14.2695C45.5625 14.3008 45.4844 14.3359 45.4062 14.375C45.3281 14.4062 45.2422 14.4336 45.1484 14.457C45.0625 14.4805 44.9531 14.4805 44.8203 14.457C44.6953 14.6523 44.5742 14.8555 44.457 15.0664C44.3398 15.2695 44.1719 15.4258 43.9531 15.5352L43.7539 15.5117C43.6133 15.5039 43.4688 15.5195 43.3203 15.5586C43.1797 15.5977 43.0508 15.6562 42.9336 15.7344C42.8242 15.8125 42.7344 15.9102 42.6641 16.0273C42.5938 16.1445 42.5586 16.2852 42.5586 16.4492C42.5586 16.6602 42.5898 16.8203 42.6523 16.9297C42.7148 17.0312 42.793 17.1172 42.8867 17.1875C42.9805 17.25 43.082 17.3086 43.1914 17.3633C43.3008 17.418 43.4023 17.5039 43.4961 17.6211C43.582 17.6367 43.6719 17.6406 43.7656 17.6328C43.8594 17.625 43.9531 17.6211 44.0469 17.6211C44.1094 17.6211 44.1719 17.625 44.2344 17.6328C44.3047 17.6328 44.3633 17.6523 44.4102 17.6914C44.5039 17.6055 44.582 17.543 44.6445 17.5039C44.707 17.457 44.8125 17.4414 44.9609 17.457C45.1406 17.2305 45.3633 17.0547 45.6289 16.9297C45.8945 16.8047 46.1602 16.6992 46.4258 16.6133C46.4414 16.5273 46.4766 16.4531 46.5312 16.3906C46.5938 16.3281 46.6602 16.2734 46.7305 16.2266C46.8008 16.1719 46.8711 16.125 46.9414 16.0859C47.0117 16.0391 47.0703 15.9844 47.1172 15.9219C47.1641 15.875 47.2305 15.7852 47.3164 15.6523C47.4102 15.5195 47.5 15.3789 47.5859 15.2305C47.6797 15.0742 47.7578 14.9297 47.8203 14.7969C47.8828 14.6641 47.9141 14.5664 47.9141 14.5039Z" fill="url(#paint3_linear)"/>
<path d="M64.3789 13.2852C64.3398 13.457 64.2812 13.625 64.2031 13.7891C64.1328 13.9531 64.0586 14.1172 63.9805 14.2812C63.9102 14.4453 63.8438 14.6133 63.7812 14.7852C63.7266 14.9492 63.6953 15.1211 63.6875 15.3008C63.6719 15.4023 63.6484 15.4688 63.6172 15.5C63.5859 15.5234 63.5508 15.5508 63.5117 15.582C63.4727 15.6133 63.4375 15.6602 63.4062 15.7227C63.3828 15.7852 63.3711 15.8984 63.3711 16.0625C63.3711 16.1641 63.3594 16.3086 63.3359 16.4961C63.3125 16.6836 63.2773 16.8945 63.2305 17.1289C63.1836 17.3555 63.1289 17.5938 63.0664 17.8438C63.0117 18.0859 62.9492 18.3164 62.8789 18.5352C62.8086 18.7461 62.7344 18.9297 62.6562 19.0859C62.5859 19.2422 62.5117 19.3477 62.4336 19.4023C62.4102 19.4648 62.3945 19.5312 62.3867 19.6016C62.3867 19.6641 62.3789 19.7266 62.3633 19.7891C62.3477 19.8516 62.3203 19.9062 62.2812 19.9531C62.25 20 62.2227 20.0469 62.1992 20.0938C62.1289 20.2969 62.082 20.4414 62.0586 20.5273C62.043 20.6211 62.0195 20.6914 61.9883 20.7383C61.9648 20.793 61.9141 20.8477 61.8359 20.9023C61.7578 20.957 61.6211 21.0469 61.4258 21.1719C61.3555 21.2344 61.2617 21.3008 61.1445 21.3711C61.0273 21.4492 60.9219 21.4883 60.8281 21.4883C60.6875 21.4883 60.5547 21.4609 60.4297 21.4062C60.3047 21.3594 60.1836 21.2969 60.0664 21.2188C59.9492 21.1484 59.8281 21.0742 59.7031 20.9961C59.5859 20.918 59.4648 20.8516 59.3398 20.7969V20.7383C59.3398 20.6758 59.3164 20.6094 59.2695 20.5391C59.2227 20.4688 59.1992 20.4023 59.1992 20.3398L59.2695 20.2695C59.2539 20.168 59.2344 20.0703 59.2109 19.9766C59.1875 19.8828 59.1758 19.7852 59.1758 19.6836C59.1758 19.6133 59.2188 19.4727 59.3047 19.2617C59.3906 19.043 59.4922 18.8125 59.6094 18.5703C59.7266 18.3281 59.8398 18.1016 59.9492 17.8906C60.0664 17.6719 60.1523 17.5273 60.207 17.457C60.2773 17.3633 60.3594 17.2812 60.4531 17.2109C60.5469 17.1328 60.6172 17.0391 60.6641 16.9297C60.7266 16.7734 60.7539 16.6055 60.7461 16.4258C60.7461 16.2461 60.7656 16.0781 60.8047 15.9219C60.8281 15.8359 60.8672 15.7617 60.9219 15.6992C60.9766 15.6289 61.0195 15.5508 61.0508 15.4648C61.0977 15.293 61.1094 15.1211 61.0859 14.9492C61.0703 14.7773 61.082 14.6133 61.1211 14.457C61.1445 14.332 61.1875 14.2031 61.25 14.0703C61.3203 13.9375 61.3555 13.8086 61.3555 13.6836C61.3555 13.5742 61.3438 13.4727 61.3203 13.3789C61.2969 13.2773 61.2852 13.1719 61.2852 13.0625C61.2852 12.8672 61.2891 12.6797 61.2969 12.5C61.3047 12.3203 61.3086 12.1406 61.3086 11.9609C61.3086 11.6094 61.2617 11.2891 61.168 11C61.082 10.7031 60.8906 10.4648 60.5938 10.2852L60.4883 10.1094C60.4648 10.0938 60.4414 10.0938 60.418 10.1094C60.3945 10.125 60.3633 10.1328 60.3242 10.1328C60.2773 10.1328 60.2344 10.1094 60.1953 10.0625C60.1641 10.0078 60.1133 9.95312 60.043 9.89844C59.9805 9.83594 59.8906 9.78125 59.7734 9.73438C59.6641 9.67969 59.5117 9.65234 59.3164 9.65234C59.0586 9.65234 58.8359 9.70703 58.6484 9.81641C58.4688 9.91797 58.3008 10.0469 58.1445 10.2031C57.9883 10.3516 57.8359 10.5117 57.6875 10.6836C57.5391 10.8477 57.3711 10.9922 57.1836 11.1172C57.1914 11.2344 57.1758 11.332 57.1367 11.4102C57.0977 11.4883 57.0469 11.5625 56.9844 11.6328C56.9297 11.6953 56.8672 11.7617 56.7969 11.832C56.7344 11.8945 56.6797 11.9688 56.6328 12.0547C56.6094 12.1016 56.5977 12.1562 56.5977 12.2188C56.5977 12.2734 56.5859 12.3242 56.5625 12.3711C56.5 12.4648 56.418 12.5469 56.3164 12.6172C56.2227 12.6797 56.1523 12.7734 56.1055 12.8984C56.0508 13.0156 56.0234 13.1445 56.0234 13.2852C56.0234 13.418 56.0156 13.543 56 13.6602C56 13.7227 55.9883 13.7734 55.9648 13.8125C55.9492 13.8516 55.9297 13.8906 55.9062 13.9297C55.8828 13.9609 55.8594 13.9922 55.8359 14.0234C55.8125 14.0547 55.7969 14.0938 55.7891 14.1406C55.7656 14.3203 55.7539 14.5 55.7539 14.6797C55.7539 14.8594 55.7109 15.0391 55.625 15.2188C55.6875 15.3984 55.7539 15.5781 55.8242 15.7578C55.8945 15.9297 55.9297 16.1133 55.9297 16.3086C55.9297 16.5352 55.8945 16.7578 55.8242 16.9766C55.7539 17.1953 55.7188 17.418 55.7188 17.6445C55.7188 17.8398 55.7656 18.0078 55.8594 18.1484C55.75 18.4531 55.668 18.7656 55.6133 19.0859C55.5586 19.3984 55.4883 19.7109 55.4023 20.0234C55.3086 20.1094 55.1992 20.1719 55.0742 20.2109C54.9492 20.25 54.8281 20.2695 54.7109 20.2695C54.4844 20.2695 54.2617 20.2422 54.043 20.1875C53.8242 20.1406 53.6055 20.1094 53.3867 20.0938C53.3633 20 53.3164 19.9219 53.2461 19.8594C53.1836 19.7891 53.1133 19.7227 53.0352 19.6602C52.9648 19.5977 52.9023 19.5273 52.8477 19.4492C52.793 19.3633 52.7656 19.2578 52.7656 19.1328C52.7656 19.0234 52.7969 18.9023 52.8594 18.7695C52.9297 18.6367 52.9766 18.5117 53 18.3945C53.0156 18.2852 53.0156 18.1719 53 18.0547C52.9844 17.9375 52.9766 17.8164 52.9766 17.6914C52.9766 17.4805 53.0117 17.2656 53.082 17.0469C53.1602 16.8281 53.207 16.6055 53.2227 16.3789C53.2305 16.2617 53.2344 16.1406 53.2344 16.0156C53.2344 15.8828 53.2383 15.7539 53.2461 15.6289C53.2539 15.4961 53.2695 15.3672 53.293 15.2422C53.3242 15.1172 53.3789 15.0078 53.457 14.9141C53.4336 14.8281 53.4102 14.7422 53.3867 14.6562C53.3711 14.5625 53.3633 14.4727 53.3633 14.3867C53.3633 14.3008 53.3789 14.2227 53.4102 14.1523C53.4414 14.0742 53.457 14 53.457 13.9297C53.457 13.8594 53.4336 13.8047 53.3867 13.7656C53.3398 13.7188 53.3164 13.6602 53.3164 13.5898L53.3867 13.5195C53.3711 13.4258 53.3555 13.3359 53.3398 13.25C53.3242 13.1562 53.3164 13.0625 53.3164 12.9688C53.3164 12.75 53.3516 12.543 53.4219 12.3477C53.5 12.1445 53.5391 11.9336 53.5391 11.7148C53.5391 11.5352 53.5234 11.3633 53.4922 11.1992C53.4688 11.0273 53.457 10.8555 53.457 10.6836C53.457 10.5664 53.4688 10.4531 53.4922 10.3438C53.5234 10.2266 53.5508 10.1133 53.5742 10.0039C53.6055 9.89453 53.6328 9.78516 53.6562 9.67578C53.6875 9.55859 53.7031 9.44141 53.7031 9.32422C53.7031 9.23047 53.6875 9.14062 53.6562 9.05469C53.6328 8.96875 53.6016 8.88281 53.5625 8.79688C53.5312 8.71094 53.5 8.625 53.4688 8.53906C53.4453 8.45312 53.4336 8.36328 53.4336 8.26953C53.4336 7.89453 53.5273 7.53906 53.7148 7.20312C53.9023 6.86719 54.1289 6.57422 54.3945 6.32422C54.4102 6.32422 54.4258 6.32812 54.4414 6.33594C54.457 6.34375 54.4727 6.34766 54.4883 6.34766C54.5742 6.34766 54.6484 6.33203 54.7109 6.30078C54.7812 6.26172 54.8516 6.24219 54.9219 6.24219C55.125 6.24219 55.3008 6.29297 55.4492 6.39453C55.6055 6.48828 55.7656 6.56641 55.9297 6.62891C56.0391 6.92578 56.1289 7.22656 56.1992 7.53125C56.2773 7.83594 56.3164 8.15234 56.3164 8.48047C56.4023 8.45703 56.4805 8.42578 56.5508 8.38672C56.6289 8.33984 56.7031 8.29297 56.7734 8.24609C56.8516 8.19922 56.9258 8.15625 56.9961 8.11719C57.0742 8.07031 57.1602 8.03906 57.2539 8.02344C57.332 7.96875 57.3984 7.90625 57.4531 7.83594C57.5078 7.75781 57.5586 7.67969 57.6055 7.60156C57.6602 7.52344 57.7109 7.44922 57.7578 7.37891C57.8125 7.30078 57.875 7.23438 57.9453 7.17969C58.0391 7.10938 58.1875 7.03516 58.3906 6.95703C58.6016 6.87891 58.8203 6.80859 59.0469 6.74609C59.2812 6.67578 59.5078 6.62109 59.7266 6.58203C59.9453 6.53516 60.1133 6.51172 60.2305 6.51172C60.3711 6.51172 60.4961 6.52734 60.6055 6.55859C60.7227 6.58203 60.832 6.61719 60.9336 6.66406C61.043 6.70312 61.1484 6.75 61.25 6.80469C61.3594 6.85156 61.4766 6.89844 61.6016 6.94531C61.6484 6.96094 61.6953 6.97266 61.7422 6.98047C61.7891 6.98047 61.8438 6.99219 61.9062 7.01562C62 7.05469 62.082 7.10938 62.1523 7.17969C62.2305 7.24219 62.3086 7.30859 62.3867 7.37891C62.4648 7.44922 62.543 7.51562 62.6211 7.57812C62.707 7.63281 62.7969 7.67578 62.8906 7.70703C62.9375 7.83984 63 7.95703 63.0781 8.05859C63.1641 8.16016 63.2617 8.25391 63.3711 8.33984C63.3945 8.50391 63.4375 8.66016 63.5 8.80859C63.5703 8.94922 63.6367 9.09375 63.6992 9.24219C63.7695 9.38281 63.832 9.52734 63.8867 9.67578C63.9414 9.81641 63.9688 9.96875 63.9688 10.1328C63.9688 10.2344 63.957 10.3242 63.9336 10.4023C63.9102 10.4727 63.8984 10.5508 63.8984 10.6367C63.8984 10.707 63.9102 10.7617 63.9336 10.8008C63.9648 10.8398 63.9922 10.8789 64.0156 10.918C64.0469 10.9492 64.0742 10.9883 64.0977 11.0352C64.1289 11.0742 64.1445 11.125 64.1445 11.1875C64.1445 11.3672 64.1367 11.543 64.1211 11.7148C64.1055 11.8867 64.0977 12.0625 64.0977 12.2422C64.0977 12.4219 64.1172 12.6016 64.1562 12.7812C64.1953 12.9609 64.2695 13.1289 64.3789 13.2852Z" fill="url(#paint4_linear)"/>
<path d="M69.6523 3.75781C69.5664 3.86719 69.5273 3.98828 69.5352 4.12109C69.543 4.25391 69.5273 4.38672 69.4883 4.51953C69.4648 4.64453 69.4219 4.76172 69.3594 4.87109C69.3047 4.98047 69.2656 5.09375 69.2422 5.21094C69.2031 5.55469 69.1914 5.89453 69.207 6.23047C69.2305 6.55859 69.2422 6.89062 69.2422 7.22656C69.2422 7.28125 69.2305 7.33203 69.207 7.37891C69.1836 7.42578 69.1719 7.48047 69.1719 7.54297C69.1719 7.65234 69.1875 7.76172 69.2188 7.87109C69.25 7.97266 69.2656 8.07812 69.2656 8.1875C69.2656 8.28125 69.2461 8.375 69.207 8.46875C69.1758 8.5625 69.1406 8.66016 69.1016 8.76172C69.0625 8.85547 69.0234 8.95703 68.9844 9.06641C68.9531 9.17578 68.9375 9.29297 68.9375 9.41797C68.9375 9.71484 68.9766 10.0078 69.0547 10.2969C69.1328 10.5781 69.1719 10.8672 69.1719 11.1641C69.1719 11.3828 69.1445 11.5938 69.0898 11.7969C69.0352 11.9922 69.0156 12.1992 69.0312 12.418C69.0312 12.4805 69.0352 12.543 69.043 12.6055C69.0508 12.6602 69.0547 12.7188 69.0547 12.7812C69.0547 12.9375 69.0195 13.1172 68.9492 13.3203C68.8867 13.5234 68.8086 13.6875 68.7148 13.8125C68.7617 13.9766 68.7852 14.1445 68.7852 14.3164C68.7852 14.4492 68.7695 14.6406 68.7383 14.8906C68.7148 15.1328 68.6758 15.3828 68.6211 15.6406C68.5664 15.8906 68.4922 16.1211 68.3984 16.332C68.3125 16.543 68.2109 16.6758 68.0938 16.7305C67.9688 16.7227 67.8438 16.6953 67.7188 16.6484C67.6016 16.5938 67.4961 16.5234 67.4023 16.4375C67.3086 16.3516 67.2305 16.2539 67.168 16.1445C67.1133 16.0273 67.0859 15.8984 67.0859 15.7578C67.0859 15.6484 67.0977 15.543 67.1211 15.4414C67.1445 15.3398 67.1562 15.2344 67.1562 15.125C67.1562 14.7656 67.1328 14.4141 67.0859 14.0703C67.0391 13.7266 67.0156 13.375 67.0156 13.0156C67.0156 12.8125 67.0273 12.6094 67.0508 12.4062C67.0742 12.2031 67.0859 12 67.0859 11.7969C67.0859 11.6875 67.0664 11.582 67.0273 11.4805C66.9883 11.3789 66.9609 11.2734 66.9453 11.1641C66.9609 11.125 66.9766 11.0859 66.9922 11.0469C67.0078 11.0078 67.0156 10.9688 67.0156 10.9297V10.8594L66.8398 10.6367V10.5898C66.8398 10.4805 66.8555 10.375 66.8867 10.2734C66.9258 10.1641 66.9453 10.0547 66.9453 9.94531C66.9453 9.85938 66.9102 9.80469 66.8398 9.78125C66.8789 9.6875 66.9062 9.51172 66.9219 9.25391C66.9375 8.98828 66.9453 8.70703 66.9453 8.41016C66.9531 8.10547 66.9531 7.8125 66.9453 7.53125C66.9453 7.25 66.9453 7.03906 66.9453 6.89844C66.9453 6.63281 66.9141 6.375 66.8516 6.125C66.7969 5.86719 66.7695 5.61328 66.7695 5.36328C66.7695 5.14453 66.8281 4.94531 66.9453 4.76562C66.8906 4.63281 66.8594 4.5 66.8516 4.36719C66.8438 4.23438 66.8398 4.10156 66.8398 3.96875C66.8398 3.67188 66.8398 3.39453 66.8398 3.13672C66.8398 2.87109 66.8789 2.64062 66.957 2.44531C67.043 2.25 67.1836 2.09766 67.3789 1.98828C67.5742 1.87109 67.8672 1.8125 68.2578 1.8125C68.5 1.8125 68.6914 1.88281 68.832 2.02344C68.9805 2.15625 69.1016 2.32422 69.1953 2.52734C69.2891 2.72266 69.3672 2.93359 69.4297 3.16016C69.5 3.38672 69.5742 3.58594 69.6523 3.75781ZM69.2656 18.9688C69.2656 19.0547 69.2422 19.1406 69.1953 19.2266C69.1562 19.3047 69.125 19.3789 69.1016 19.4492C69.0781 19.543 69.0625 19.6289 69.0547 19.707C69.0469 19.7852 69.0312 19.8594 69.0078 19.9297C68.9922 19.9922 68.9609 20.0547 68.9141 20.1172C68.875 20.1797 68.8086 20.2461 68.7148 20.3164C68.543 20.4258 68.3555 20.5 68.1523 20.5391C67.957 20.5781 67.7617 20.5977 67.5664 20.5977C67.3398 20.5977 67.1328 20.5742 66.9453 20.5273C66.8203 20.3945 66.7031 20.2695 66.5938 20.1523C66.4922 20.0352 66.4219 19.8789 66.3828 19.6836C66.3359 19.6367 66.2969 19.5859 66.2656 19.5312C66.2344 19.4688 66.2188 19.4023 66.2188 19.332C66.2188 19.1523 66.2656 18.9805 66.3594 18.8164C66.4609 18.6445 66.5859 18.4961 66.7344 18.3711C66.8828 18.2383 67.0469 18.1328 67.2266 18.0547C67.4141 17.9766 67.5898 17.9375 67.7539 17.9375C67.8945 17.9375 68.0508 17.9609 68.2227 18.0078C68.3945 18.0469 68.5586 18.1133 68.7148 18.207C68.8711 18.293 69 18.4023 69.1016 18.5352C69.2109 18.6602 69.2656 18.8047 69.2656 18.9688Z" fill="url(#paint5_linear)"/>
<defs>
<linearGradient id="paint0_linear" x1="0.394534" y1="-6.40294" x2="72.7309" y2="17.9054" gradientUnits="userSpaceOnUse">
<stop stop-color="#CF16FD"/>
<stop offset="1" stop-color="#770195"/>
</linearGradient>
<linearGradient id="paint1_linear" x1="0.394534" y1="-6.40294" x2="72.7309" y2="17.9054" gradientUnits="userSpaceOnUse">
<stop stop-color="#CF16FD"/>
<stop offset="1" stop-color="#770195"/>
</linearGradient>
<linearGradient id="paint2_linear" x1="0.394534" y1="-6.40294" x2="72.7309" y2="17.9054" gradientUnits="userSpaceOnUse">
<stop stop-color="#CF16FD"/>
<stop offset="1" stop-color="#770195"/>
</linearGradient>
<linearGradient id="paint3_linear" x1="0.394534" y1="-6.40294" x2="72.7309" y2="17.9054" gradientUnits="userSpaceOnUse">
<stop stop-color="#CF16FD"/>
<stop offset="1" stop-color="#770195"/>
</linearGradient>
<linearGradient id="paint4_linear" x1="0.394534" y1="-6.40294" x2="72.7309" y2="17.9054" gradientUnits="userSpaceOnUse">
<stop stop-color="#CF16FD"/>
<stop offset="1" stop-color="#770195"/>
</linearGradient>
<linearGradient id="paint5_linear" x1="0.394534" y1="-6.40294" x2="72.7309" y2="17.9054" gradientUnits="userSpaceOnUse">
<stop stop-color="#CF16FD"/>
<stop offset="1" stop-color="#770195"/>
</linearGradient>
</defs>
</svg>
