<svg width="10" height="10" viewBox="0 0 10 10" fill="none" xmlns="http://www.w3.org/2000/svg">
<path d="M4.35331 9.47042C4.15805 9.27516 4.15805 8.95858 4.35331 8.76332L8.76309 4.35354C8.95835 4.15827 9.27494 4.15827 9.4702 4.35354C9.66546 4.5488 9.66546 4.86538 9.4702 5.06064L5.06042 9.47042C4.86516 9.66569 4.54857 9.66569 4.35331 9.47042Z" fill="#CF16FD"/>
<path d="M0.438927 9.5683C0.243665 9.37304 0.243665 9.05646 0.438927 8.8612L8.94658 0.353539C9.14185 0.158277 9.45843 0.158277 9.65369 0.353539C9.84895 0.548801 9.84895 0.865384 9.65369 1.06065L1.14603 9.5683C0.950771 9.76356 0.634189 9.76356 0.438927 9.5683Z" fill="#CF16FD"/>
</svg>
